<?xml version="1.0" encoding="UTF-8" standalone="no"?>
<!DOCTYPE svg PUBLIC "-//W3C//DTD SVG 1.1//EN"
 "http://www.w3.org/Graphics/SVG/1.1/DTD/svg11.dtd">
<!-- Generated by graphviz version 2.40.1 (20161225.0304)
 -->
<!-- Title: dependencies Pages: 1 -->
<svg width="1376pt" height="284pt"
 viewBox="0.00 0.00 1376.00 284.00" xmlns="http://www.w3.org/2000/svg" xmlns:xlink="http://www.w3.org/1999/xlink">
<g id="graph0" class="graph" transform="scale(1 1) rotate(0) translate(4 280)">
<title>dependencies</title>
<polygon fill="#ffffff" stroke="transparent" points="-4,4 -4,-280 1372,-280 1372,4 -4,4"/>
<text text-anchor="start" x="663.0091" y="-42.4" font-family="sans-serif" font-weight="bold" font-size="14.00" fill="#000000">Legend</text>
<polygon fill="#ffffb3" stroke="transparent" points="450,-10 450,-30 470,-30 470,-10 450,-10"/>
<text text-anchor="start" x="473.629" y="-15.4" font-family="sans-serif" font-size="14.00" fill="#000000"> &#160;Declarations</text>
<polygon fill="#8dd3c7" stroke="transparent" points="563,-10 563,-30 583,-30 583,-10 563,-10"/>
<text text-anchor="start" x="586.7251" y="-15.4" font-family="sans-serif" font-size="14.00" fill="#000000"> &#160;Module</text>
<polygon fill="#80b1d3" stroke="transparent" points="649,-10 649,-30 669,-30 669,-10 649,-10"/>
<text text-anchor="start" x="672.7812" y="-15.4" font-family="sans-serif" font-size="14.00" fill="#000000"> &#160;Bootstrap</text>
<polygon fill="#fdb462" stroke="transparent" points="746,-10 746,-30 766,-30 766,-10 746,-10"/>
<text text-anchor="start" x="769.6732" y="-15.4" font-family="sans-serif" font-size="14.00" fill="#000000"> &#160;Providers</text>
<polygon fill="#fb8072" stroke="transparent" points="842,-10 842,-30 862,-30 862,-10 842,-10"/>
<text text-anchor="start" x="865.7258" y="-15.4" font-family="sans-serif" font-size="14.00" fill="#000000"> &#160;Exports</text>
<g id="clust1" class="cluster">
<title>cluster_AppModule</title>
<polygon fill="none" stroke="#000000" stroke-dasharray="1,5" points="8,-70 8,-268 1360,-268 1360,-70 8,-70"/>
</g>
<g id="clust2" class="cluster">
<title>cluster_AppModule_declarations</title>
<polygon fill="none" stroke="#000000" points="268,-78 268,-130 1352,-130 1352,-78 268,-78"/>
</g>
<g id="clust11" class="cluster">
<title>cluster_AppModule_imports</title>
<polygon fill="none" stroke="#000000" points="16,-78 16,-130 260,-130 260,-78 16,-78"/>
</g>
<g id="clust13" class="cluster">
<title>cluster_AppModule_bootstrap</title>
<polygon fill="none" stroke="#000000" points="639,-208 639,-260 763,-260 763,-208 639,-208"/>
</g>
<!-- AppComponent -->
<g id="node1" class="node">
<title>AppComponent</title>
<polygon fill="#ffffb3" stroke="#000000" points="1343.9399,-122 1238.0601,-122 1238.0601,-86 1343.9399,-86 1343.9399,-122"/>
<text text-anchor="middle" x="1291" y="-99.8" font-family="Times,serif" font-size="14.00" fill="#000000">AppComponent</text>
</g>
<!-- AppModule -->
<g id="node9" class="node">
<title>AppModule</title>
<polygon fill="#8dd3c7" stroke="#000000" points="742.6571,-187 739.6571,-191 718.6571,-191 715.6571,-187 659.3429,-187 659.3429,-151 742.6571,-151 742.6571,-187"/>
<text text-anchor="middle" x="701" y="-164.8" font-family="Times,serif" font-size="14.00" fill="#000000">AppModule</text>
</g>
<!-- AppComponent&#45;&gt;AppModule -->
<g id="edge1" class="edge">
<title>AppComponent&#45;&gt;AppModule</title>
<path fill="none" stroke="#000000" d="M1291,-122.0109C1291,-144.4852 1291,-180 1291,-180 1291,-180 752.9584,-180 752.9584,-180"/>
<polygon fill="#000000" stroke="#000000" points="752.9584,-176.5001 742.9584,-180 752.9583,-183.5001 752.9584,-176.5001"/>
</g>
<!-- CartComponent -->
<g id="node2" class="node">
<title>CartComponent</title>
<polygon fill="#ffffb3" stroke="#000000" points="1220.9357,-122 1115.0643,-122 1115.0643,-86 1220.9357,-86 1220.9357,-122"/>
<text text-anchor="middle" x="1168" y="-99.8" font-family="Times,serif" font-size="14.00" fill="#000000">CartComponent</text>
</g>
<!-- CartComponent&#45;&gt;AppModule -->
<g id="edge2" class="edge">
<title>CartComponent&#45;&gt;AppModule</title>
<path fill="none" stroke="#000000" d="M1168,-122.1289C1168,-142.5724 1168,-173 1168,-173 1168,-173 752.8541,-173 752.8541,-173"/>
<polygon fill="#000000" stroke="#000000" points="752.8542,-169.5001 742.8541,-173 752.8541,-176.5001 752.8542,-169.5001"/>
</g>
<!-- GoodsComponent -->
<g id="node3" class="node">
<title>GoodsComponent</title>
<polygon fill="#ffffb3" stroke="#000000" points="1096.8837,-122 979.1163,-122 979.1163,-86 1096.8837,-86 1096.8837,-122"/>
<text text-anchor="middle" x="1038" y="-99.8" font-family="Times,serif" font-size="14.00" fill="#000000">GoodsComponent</text>
</g>
<!-- GoodsComponent&#45;&gt;AppModule -->
<g id="edge3" class="edge">
<title>GoodsComponent&#45;&gt;AppModule</title>
<path fill="none" stroke="#000000" d="M1038,-122.2667C1038,-140.5552 1038,-166 1038,-166 1038,-166 752.6608,-166 752.6608,-166"/>
<polygon fill="#000000" stroke="#000000" points="752.6608,-162.5001 742.6608,-166 752.6608,-169.5001 752.6608,-162.5001"/>
</g>
<!-- HomeComponent -->
<g id="node4" class="node">
<title>HomeComponent</title>
<polygon fill="#ffffb3" stroke="#000000" points="960.5451,-122 845.4549,-122 845.4549,-86 960.5451,-86 960.5451,-122"/>
<text text-anchor="middle" x="903" y="-99.8" font-family="Times,serif" font-size="14.00" fill="#000000">HomeComponent</text>
</g>
<!-- HomeComponent&#45;&gt;AppModule -->
<g id="edge4" class="edge">
<title>HomeComponent&#45;&gt;AppModule</title>
<path fill="none" stroke="#000000" d="M903,-122.0091C903,-138.0494 903,-159 903,-159 903,-159 752.8545,-159 752.8545,-159"/>
<polygon fill="#000000" stroke="#000000" points="752.8546,-155.5001 742.8545,-159 752.8545,-162.5001 752.8546,-155.5001"/>
</g>
<!-- LoginComponent -->
<g id="node5" class="node">
<title>LoginComponent</title>
<polygon fill="#ffffb3" stroke="#000000" points="827.2758,-122 712.7242,-122 712.7242,-86 827.2758,-86 827.2758,-122"/>
<text text-anchor="middle" x="770" y="-99.8" font-family="Times,serif" font-size="14.00" fill="#000000">LoginComponent</text>
</g>
<!-- LoginComponent&#45;&gt;AppModule -->
<g id="edge5" class="edge">
<title>LoginComponent&#45;&gt;AppModule</title>
<path fill="none" stroke="#000000" d="M727.7202,-122.1061C727.7202,-122.1061 727.7202,-140.991 727.7202,-140.991"/>
<polygon fill="#000000" stroke="#000000" points="724.2203,-140.9909 727.7202,-150.991 731.2203,-140.991 724.2203,-140.9909"/>
</g>
<!-- NavbarComponent -->
<g id="node6" class="node">
<title>NavbarComponent</title>
<polygon fill="#ffffb3" stroke="#000000" points="694.0297,-122 571.9703,-122 571.9703,-86 694.0297,-86 694.0297,-122"/>
<text text-anchor="middle" x="633" y="-99.8" font-family="Times,serif" font-size="14.00" fill="#000000">NavbarComponent</text>
</g>
<!-- NavbarComponent&#45;&gt;AppModule -->
<g id="edge6" class="edge">
<title>NavbarComponent&#45;&gt;AppModule</title>
<path fill="none" stroke="#000000" d="M676.7181,-122.1061C676.7181,-122.1061 676.7181,-140.991 676.7181,-140.991"/>
<polygon fill="#000000" stroke="#000000" points="673.2182,-140.9909 676.7181,-150.991 680.2182,-140.991 673.2182,-140.9909"/>
</g>
<!-- NotFoundComponent -->
<g id="node7" class="node">
<title>NotFoundComponent</title>
<polygon fill="#ffffb3" stroke="#000000" points="554.1122,-122 415.8878,-122 415.8878,-86 554.1122,-86 554.1122,-122"/>
<text text-anchor="middle" x="485" y="-99.8" font-family="Times,serif" font-size="14.00" fill="#000000">NotFoundComponent</text>
</g>
<!-- NotFoundComponent&#45;&gt;AppModule -->
<g id="edge7" class="edge">
<title>NotFoundComponent&#45;&gt;AppModule</title>
<path fill="none" stroke="#000000" d="M485,-122.0091C485,-138.0494 485,-159 485,-159 485,-159 649.0969,-159 649.0969,-159"/>
<polygon fill="#000000" stroke="#000000" points="649.0969,-162.5001 659.0969,-159 649.0969,-155.5001 649.0969,-162.5001"/>
</g>
<!-- SignupComponent -->
<g id="node8" class="node">
<title>SignupComponent</title>
<polygon fill="#ffffb3" stroke="#000000" points="397.5056,-122 276.4944,-122 276.4944,-86 397.5056,-86 397.5056,-122"/>
<text text-anchor="middle" x="337" y="-99.8" font-family="Times,serif" font-size="14.00" fill="#000000">SignupComponent</text>
</g>
<!-- SignupComponent&#45;&gt;AppModule -->
<g id="edge8" class="edge">
<title>SignupComponent&#45;&gt;AppModule</title>
<path fill="none" stroke="#000000" d="M337,-122.2667C337,-140.5552 337,-166 337,-166 337,-166 649.2446,-166 649.2446,-166"/>
<polygon fill="#000000" stroke="#000000" points="649.2446,-169.5001 659.2446,-166 649.2445,-162.5001 649.2446,-169.5001"/>
</g>
<!-- AppComponent  -->
<g id="node12" class="node">
<title>AppComponent </title>
<polygon fill="#80b1d3" stroke="#000000" points="755.439,-252 646.561,-252 646.561,-216 755.439,-216 755.439,-252"/>
<text text-anchor="middle" x="701" y="-229.8" font-family="Times,serif" font-size="14.00" fill="#000000">AppComponent </text>
</g>
<!-- AppModule&#45;&gt;AppComponent  -->
<g id="edge11" class="edge">
<title>AppModule&#45;&gt;AppComponent </title>
<path fill="none" stroke="#000000" stroke-dasharray="1,5" d="M701,-187.1061C701,-187.1061 701,-205.991 701,-205.991"/>
<polygon fill="#000000" stroke="#000000" points="697.5001,-205.9909 701,-215.991 704.5001,-205.991 697.5001,-205.9909"/>
</g>
<!-- AppRoutingModule -->
<g id="node10" class="node">
<title>AppRoutingModule</title>
<polygon fill="#8dd3c7" stroke="#000000" points="252.2744,-122 249.2744,-126 228.2744,-126 225.2744,-122 123.7256,-122 123.7256,-86 252.2744,-86 252.2744,-122"/>
<text text-anchor="middle" x="188" y="-99.8" font-family="Times,serif" font-size="14.00" fill="#000000">AppRoutingModule</text>
</g>
<!-- AppRoutingModule&#45;&gt;AppModule -->
<g id="edge9" class="edge">
<title>AppRoutingModule&#45;&gt;AppModule</title>
<path fill="none" stroke="#000000" d="M188,-122.1289C188,-142.5724 188,-173 188,-173 188,-173 649.0191,-173 649.0191,-173"/>
<polygon fill="#000000" stroke="#000000" points="649.0191,-176.5001 659.0191,-173 649.019,-169.5001 649.0191,-176.5001"/>
</g>
<!-- MatModule -->
<g id="node11" class="node">
<title>MatModule</title>
<polygon fill="#8dd3c7" stroke="#000000" points="106.0997,-122 103.0997,-126 82.0997,-126 79.0997,-122 23.9003,-122 23.9003,-86 106.0997,-86 106.0997,-122"/>
<text text-anchor="middle" x="65" y="-99.8" font-family="Times,serif" font-size="14.00" fill="#000000">MatModule</text>
</g>
<!-- MatModule&#45;&gt;AppModule -->
<g id="edge10" class="edge">
<title>MatModule&#45;&gt;AppModule</title>
<path fill="none" stroke="#000000" d="M65,-122.0109C65,-144.4852 65,-180 65,-180 65,-180 649.2703,-180 649.2703,-180"/>
<polygon fill="#000000" stroke="#000000" points="649.2703,-183.5001 659.2703,-180 649.2702,-176.5001 649.2703,-183.5001"/>
</g>
</g>
</svg>
